<mxfile host="app.diagrams.net" agent="Mozilla/5.0 (Windows NT 10.0; Win64; x64) AppleWebKit/537.36 (KHTML, like Gecko) Chrome/131.0.0.0 Safari/537.36" version="24.8.6" pages="2">
  <diagram name="Page-1" id="Rrq77-YBqYlY7ePWK9uO">
    <mxGraphModel grid="1" page="1" gridSize="10" guides="1" tooltips="1" connect="1" arrows="1" fold="1" pageScale="1" pageWidth="827" pageHeight="1169" math="0" shadow="0">
      <root>
        <mxCell id="0" />
        <mxCell id="1" parent="0" />
        <mxCell id="QbSMFWVIE9MtOS3FwXWx-2" value="&#xa;" style="fontStyle=1;align=center;verticalAlign=top;childLayout=stackLayout;horizontal=1;horizontalStack=0;resizeParent=1;resizeParentMax=0;resizeLast=0;marginBottom=0;container=0;" vertex="1" parent="1">
          <mxGeometry x="-570" y="220" width="130" height="160" as="geometry" />
        </mxCell>
        <mxCell id="QbSMFWVIE9MtOS3FwXWx-11" value="" style="html=1;rounded=0;" vertex="1" parent="1">
          <mxGeometry x="-460" y="285" width="30" height="30" as="geometry" />
        </mxCell>
        <mxCell id="QbSMFWVIE9MtOS3FwXWx-12" value="" style="endArrow=none;html=1;rounded=0;align=center;verticalAlign=top;endFill=0;labelBackgroundColor=none;endSize=2;" edge="1" parent="1" source="QbSMFWVIE9MtOS3FwXWx-11" target="QbSMFWVIE9MtOS3FwXWx-13">
          <mxGeometry relative="1" as="geometry" />
        </mxCell>
        <mxCell id="QbSMFWVIE9MtOS3FwXWx-17" value="File To Analyze" style="edgeLabel;html=1;align=center;verticalAlign=middle;resizable=0;points=[];" connectable="0" vertex="1" parent="QbSMFWVIE9MtOS3FwXWx-12">
          <mxGeometry x="-0.13" relative="1" as="geometry">
            <mxPoint x="22" y="-15" as="offset" />
          </mxGeometry>
        </mxCell>
        <mxCell id="QbSMFWVIE9MtOS3FwXWx-13" value="" style="shape=requiredInterface;html=1;fontSize=11;align=center;fillColor=none;points=[];aspect=fixed;resizable=0;verticalAlign=bottom;labelPosition=center;verticalLabelPosition=top;flipH=1;" vertex="1" parent="1">
          <mxGeometry x="-390" y="295" width="5" height="10" as="geometry" />
        </mxCell>
        <mxCell id="QbSMFWVIE9MtOS3FwXWx-14" value="" style="html=1;rounded=0;" vertex="1" parent="1">
          <mxGeometry x="-460" y="340" width="30" height="30" as="geometry" />
        </mxCell>
        <mxCell id="QbSMFWVIE9MtOS3FwXWx-15" value="" style="endArrow=none;html=1;rounded=0;align=center;verticalAlign=top;endFill=0;labelBackgroundColor=none;endSize=2;edgeStyle=orthogonalEdgeStyle;" edge="1" parent="1" source="QbSMFWVIE9MtOS3FwXWx-14" target="QbSMFWVIE9MtOS3FwXWx-16">
          <mxGeometry relative="1" as="geometry">
            <Array as="points">
              <mxPoint x="-180" y="355" />
              <mxPoint x="-180" y="-92" />
            </Array>
          </mxGeometry>
        </mxCell>
        <mxCell id="QbSMFWVIE9MtOS3FwXWx-16" value="" style="ellipse;html=1;fontSize=11;align=center;fillColor=none;points=[];aspect=fixed;resizable=0;verticalAlign=bottom;labelPosition=center;verticalLabelPosition=top;flipH=1;" vertex="1" parent="1">
          <mxGeometry x="-382" y="-96" width="8" height="8" as="geometry" />
        </mxCell>
        <mxCell id="QbSMFWVIE9MtOS3FwXWx-18" value="Tokens Info" style="edgeLabel;html=1;align=center;verticalAlign=middle;resizable=0;points=[];" connectable="0" vertex="1" parent="1">
          <mxGeometry x="-390.0009523809525" y="285" as="geometry">
            <mxPoint x="-9" y="60" as="offset" />
          </mxGeometry>
        </mxCell>
        <mxCell id="QbSMFWVIE9MtOS3FwXWx-3" value="&amp;lt;&amp;lt;component&amp;gt;&amp;gt;&lt;div&gt;Syntax Analyzer&lt;/div&gt;" style="html=1;align=left;spacingLeft=4;verticalAlign=top;strokeColor=none;fillColor=none;whiteSpace=wrap;" vertex="1" parent="1">
          <mxGeometry x="-570" y="220" width="130" height="40" as="geometry" />
        </mxCell>
        <mxCell id="QbSMFWVIE9MtOS3FwXWx-4" value="" style="shape=module;jettyWidth=10;jettyHeight=4;" vertex="1" parent="QbSMFWVIE9MtOS3FwXWx-3">
          <mxGeometry x="1" width="16" height="20" relative="1" as="geometry">
            <mxPoint x="-25" y="9" as="offset" />
          </mxGeometry>
        </mxCell>
        <mxCell id="QbSMFWVIE9MtOS3FwXWx-31" value="" style="group" connectable="0" vertex="1" parent="1">
          <mxGeometry x="-10" y="250" width="209.61904761904748" height="150" as="geometry" />
        </mxCell>
        <mxCell id="QbSMFWVIE9MtOS3FwXWx-20" value="&#xa;" style="fontStyle=1;align=center;verticalAlign=top;childLayout=stackLayout;horizontal=1;horizontalStack=0;resizeParent=1;resizeParentMax=0;resizeLast=0;marginBottom=0;container=0;" vertex="1" parent="QbSMFWVIE9MtOS3FwXWx-31">
          <mxGeometry width="150" height="150" as="geometry" />
        </mxCell>
        <mxCell id="QbSMFWVIE9MtOS3FwXWx-29" value="&amp;lt;&amp;lt;component&amp;gt;&amp;gt;&lt;div&gt;Experiment Structure Parser&amp;nbsp;&lt;/div&gt;" style="html=1;align=left;spacingLeft=4;verticalAlign=top;strokeColor=none;fillColor=none;whiteSpace=wrap;" vertex="1" parent="QbSMFWVIE9MtOS3FwXWx-31">
          <mxGeometry width="150" height="37.5" as="geometry" />
        </mxCell>
        <mxCell id="QbSMFWVIE9MtOS3FwXWx-30" value="" style="shape=module;jettyWidth=10;jettyHeight=4;" vertex="1" parent="QbSMFWVIE9MtOS3FwXWx-29">
          <mxGeometry x="1" width="16" height="20" relative="1" as="geometry">
            <mxPoint x="-25" y="9" as="offset" />
          </mxGeometry>
        </mxCell>
        <mxCell id="QbSMFWVIE9MtOS3FwXWx-21" value="" style="html=1;rounded=0;" vertex="1" parent="QbSMFWVIE9MtOS3FwXWx-31">
          <mxGeometry x="130" y="52.5" width="30" height="27.5" as="geometry" />
        </mxCell>
        <mxCell id="QbSMFWVIE9MtOS3FwXWx-25" value="" style="html=1;rounded=0;" vertex="1" parent="QbSMFWVIE9MtOS3FwXWx-31">
          <mxGeometry x="130" y="97.5" width="30" height="30" as="geometry" />
        </mxCell>
        <mxCell id="QbSMFWVIE9MtOS3FwXWx-28" value="Experiment Structure" style="edgeLabel;html=1;align=center;verticalAlign=middle;resizable=0;points=[];" connectable="0" vertex="1" parent="QbSMFWVIE9MtOS3FwXWx-31">
          <mxGeometry x="209.61904761904748" y="37.5" as="geometry">
            <mxPoint x="-9" y="60" as="offset" />
          </mxGeometry>
        </mxCell>
        <mxCell id="QbSMFWVIE9MtOS3FwXWx-22" value="" style="endArrow=none;html=1;rounded=0;align=center;verticalAlign=top;endFill=0;labelBackgroundColor=none;endSize=2;" edge="1" parent="1" source="QbSMFWVIE9MtOS3FwXWx-21" target="QbSMFWVIE9MtOS3FwXWx-24">
          <mxGeometry relative="1" as="geometry" />
        </mxCell>
        <mxCell id="QbSMFWVIE9MtOS3FwXWx-23" value="File To Parse" style="edgeLabel;html=1;align=center;verticalAlign=middle;resizable=0;points=[];" connectable="0" vertex="1" parent="QbSMFWVIE9MtOS3FwXWx-22">
          <mxGeometry x="-0.13" relative="1" as="geometry">
            <mxPoint x="22" y="-15" as="offset" />
          </mxGeometry>
        </mxCell>
        <mxCell id="QbSMFWVIE9MtOS3FwXWx-24" value="" style="shape=requiredInterface;html=1;fontSize=11;align=center;fillColor=none;points=[];aspect=fixed;resizable=0;verticalAlign=bottom;labelPosition=center;verticalLabelPosition=top;flipH=1;" vertex="1" parent="1">
          <mxGeometry x="190" y="311.91" width="5" height="10" as="geometry" />
        </mxCell>
        <mxCell id="QbSMFWVIE9MtOS3FwXWx-32" value="" style="group" connectable="0" vertex="1" parent="1">
          <mxGeometry x="-413" width="209.61904761904748" height="150" as="geometry" />
        </mxCell>
        <mxCell id="QbSMFWVIE9MtOS3FwXWx-33" value="&#xa;" style="fontStyle=1;align=center;verticalAlign=top;childLayout=stackLayout;horizontal=1;horizontalStack=0;resizeParent=1;resizeParentMax=0;resizeLast=0;marginBottom=0;container=0;" vertex="1" parent="QbSMFWVIE9MtOS3FwXWx-32">
          <mxGeometry width="150" height="150" as="geometry" />
        </mxCell>
        <mxCell id="QbSMFWVIE9MtOS3FwXWx-34" value="&amp;lt;&amp;lt;component&amp;gt;&amp;gt;&lt;div&gt;Project File System&amp;nbsp;&lt;/div&gt;" style="html=1;align=left;spacingLeft=4;verticalAlign=top;strokeColor=none;fillColor=none;whiteSpace=wrap;" vertex="1" parent="QbSMFWVIE9MtOS3FwXWx-32">
          <mxGeometry width="150" height="37.5" as="geometry" />
        </mxCell>
        <mxCell id="QbSMFWVIE9MtOS3FwXWx-35" value="" style="shape=module;jettyWidth=10;jettyHeight=4;" vertex="1" parent="QbSMFWVIE9MtOS3FwXWx-34">
          <mxGeometry x="1" width="16" height="20" relative="1" as="geometry">
            <mxPoint x="-25" y="9" as="offset" />
          </mxGeometry>
        </mxCell>
        <mxCell id="QbSMFWVIE9MtOS3FwXWx-37" value="" style="html=1;rounded=0;" vertex="1" parent="QbSMFWVIE9MtOS3FwXWx-32">
          <mxGeometry x="130" y="97.5" width="30" height="30" as="geometry" />
        </mxCell>
        <mxCell id="QbSMFWVIE9MtOS3FwXWx-38" value="File" style="edgeLabel;html=1;align=center;verticalAlign=middle;resizable=0;points=[];" connectable="0" vertex="1" parent="QbSMFWVIE9MtOS3FwXWx-32">
          <mxGeometry x="209.61904761904748" y="37.5" as="geometry">
            <mxPoint x="-28" y="66" as="offset" />
          </mxGeometry>
        </mxCell>
        <mxCell id="QbSMFWVIE9MtOS3FwXWx-39" value="" style="ellipse;html=1;fontSize=11;align=center;fillColor=none;points=[];aspect=fixed;resizable=0;verticalAlign=bottom;labelPosition=center;verticalLabelPosition=top;flipH=1;" vertex="1" parent="1">
          <mxGeometry x="-386" y="296" width="8" height="8" as="geometry" />
        </mxCell>
        <mxCell id="QbSMFWVIE9MtOS3FwXWx-40" value="" style="endArrow=none;html=1;rounded=0;align=center;verticalAlign=top;endFill=0;labelBackgroundColor=none;endSize=2;edgeStyle=orthogonalEdgeStyle;" edge="1" parent="1" source="QbSMFWVIE9MtOS3FwXWx-37" target="QbSMFWVIE9MtOS3FwXWx-39">
          <mxGeometry relative="1" as="geometry">
            <Array as="points">
              <mxPoint x="-220" y="113" />
              <mxPoint x="-220" y="300" />
            </Array>
          </mxGeometry>
        </mxCell>
        <mxCell id="QbSMFWVIE9MtOS3FwXWx-44" value="" style="group" connectable="0" vertex="1" parent="1">
          <mxGeometry x="-590" y="-160" width="209.62" height="155" as="geometry" />
        </mxCell>
        <mxCell id="QbSMFWVIE9MtOS3FwXWx-45" value="&#xa;" style="fontStyle=1;align=center;verticalAlign=top;childLayout=stackLayout;horizontal=1;horizontalStack=0;resizeParent=1;resizeParentMax=0;resizeLast=0;marginBottom=0;container=0;" vertex="1" parent="QbSMFWVIE9MtOS3FwXWx-44">
          <mxGeometry y="-30" width="150" height="155.00000000000003" as="geometry" />
        </mxCell>
        <mxCell id="QbSMFWVIE9MtOS3FwXWx-46" value="&amp;lt;&amp;lt;component&amp;gt;&amp;gt;&lt;div&gt;Web Editor / VSCode Extension&amp;nbsp;&lt;/div&gt;" style="html=1;align=left;spacingLeft=4;verticalAlign=top;strokeColor=none;fillColor=none;whiteSpace=wrap;" vertex="1" parent="QbSMFWVIE9MtOS3FwXWx-44">
          <mxGeometry y="-30" width="150" height="38.75000000000001" as="geometry" />
        </mxCell>
        <mxCell id="QbSMFWVIE9MtOS3FwXWx-47" value="" style="shape=module;jettyWidth=10;jettyHeight=4;" vertex="1" parent="QbSMFWVIE9MtOS3FwXWx-46">
          <mxGeometry x="1" width="16" height="20" relative="1" as="geometry">
            <mxPoint x="-25" y="9" as="offset" />
          </mxGeometry>
        </mxCell>
        <mxCell id="QbSMFWVIE9MtOS3FwXWx-54" value="" style="html=1;rounded=0;" vertex="1" parent="QbSMFWVIE9MtOS3FwXWx-44">
          <mxGeometry x="134.62" y="16.99666666666667" width="30" height="28.416666666666668" as="geometry" />
        </mxCell>
        <mxCell id="QbSMFWVIE9MtOS3FwXWx-55" value="" style="endArrow=none;html=1;rounded=0;align=center;verticalAlign=top;endFill=0;labelBackgroundColor=none;endSize=2;" edge="1" parent="QbSMFWVIE9MtOS3FwXWx-44" source="QbSMFWVIE9MtOS3FwXWx-54" target="QbSMFWVIE9MtOS3FwXWx-57">
          <mxGeometry relative="1" as="geometry" />
        </mxCell>
        <mxCell id="QbSMFWVIE9MtOS3FwXWx-56" value="File" style="edgeLabel;html=1;align=center;verticalAlign=middle;resizable=0;points=[];" connectable="0" vertex="1" parent="QbSMFWVIE9MtOS3FwXWx-55">
          <mxGeometry x="-0.13" relative="1" as="geometry">
            <mxPoint x="22" y="-15" as="offset" />
          </mxGeometry>
        </mxCell>
        <mxCell id="QbSMFWVIE9MtOS3FwXWx-57" value="" style="shape=requiredInterface;html=1;fontSize=11;align=center;fillColor=none;points=[];aspect=fixed;resizable=0;verticalAlign=bottom;labelPosition=center;verticalLabelPosition=top;flipH=1;" vertex="1" parent="QbSMFWVIE9MtOS3FwXWx-44">
          <mxGeometry x="204.62" y="26.080333333333364" width="5" height="10" as="geometry" />
        </mxCell>
        <mxCell id="QbSMFWVIE9MtOS3FwXWx-61" value="" style="html=1;rounded=0;" vertex="1" parent="QbSMFWVIE9MtOS3FwXWx-44">
          <mxGeometry x="134.62" y="54.07266666666666" width="30" height="28.416666666666668" as="geometry" />
        </mxCell>
        <mxCell id="QbSMFWVIE9MtOS3FwXWx-62" value="" style="endArrow=none;html=1;rounded=0;align=center;verticalAlign=top;endFill=0;labelBackgroundColor=none;endSize=2;" edge="1" parent="QbSMFWVIE9MtOS3FwXWx-44" source="QbSMFWVIE9MtOS3FwXWx-61" target="QbSMFWVIE9MtOS3FwXWx-64">
          <mxGeometry relative="1" as="geometry" />
        </mxCell>
        <mxCell id="QbSMFWVIE9MtOS3FwXWx-63" value="Tokens Info" style="edgeLabel;html=1;align=center;verticalAlign=middle;resizable=0;points=[];" connectable="0" vertex="1" parent="QbSMFWVIE9MtOS3FwXWx-62">
          <mxGeometry x="-0.13" relative="1" as="geometry">
            <mxPoint x="22" y="-15" as="offset" />
          </mxGeometry>
        </mxCell>
        <mxCell id="QbSMFWVIE9MtOS3FwXWx-64" value="" style="shape=requiredInterface;html=1;fontSize=11;align=center;fillColor=none;points=[];aspect=fixed;resizable=0;verticalAlign=bottom;labelPosition=center;verticalLabelPosition=top;flipH=1;" vertex="1" parent="QbSMFWVIE9MtOS3FwXWx-44">
          <mxGeometry x="204.62" y="63.15633333333342" width="5" height="10" as="geometry" />
        </mxCell>
        <mxCell id="QbSMFWVIE9MtOS3FwXWx-65" value="" style="html=1;rounded=0;" vertex="1" parent="QbSMFWVIE9MtOS3FwXWx-44">
          <mxGeometry x="134.62" y="91.39666666666668" width="30" height="28.416666666666668" as="geometry" />
        </mxCell>
        <mxCell id="QbSMFWVIE9MtOS3FwXWx-66" value="" style="endArrow=none;html=1;rounded=0;align=center;verticalAlign=top;endFill=0;labelBackgroundColor=none;endSize=2;" edge="1" parent="QbSMFWVIE9MtOS3FwXWx-44" source="QbSMFWVIE9MtOS3FwXWx-65" target="QbSMFWVIE9MtOS3FwXWx-68">
          <mxGeometry relative="1" as="geometry" />
        </mxCell>
        <mxCell id="QbSMFWVIE9MtOS3FwXWx-67" value="Structure Info" style="edgeLabel;html=1;align=center;verticalAlign=middle;resizable=0;points=[];" connectable="0" vertex="1" parent="QbSMFWVIE9MtOS3FwXWx-66">
          <mxGeometry x="-0.13" relative="1" as="geometry">
            <mxPoint x="22" y="-15" as="offset" />
          </mxGeometry>
        </mxCell>
        <mxCell id="QbSMFWVIE9MtOS3FwXWx-68" value="" style="shape=requiredInterface;html=1;fontSize=11;align=center;fillColor=none;points=[];aspect=fixed;resizable=0;verticalAlign=bottom;labelPosition=center;verticalLabelPosition=top;flipH=1;" vertex="1" parent="QbSMFWVIE9MtOS3FwXWx-44">
          <mxGeometry x="204.62" y="100.48033333333342" width="5" height="10" as="geometry" />
        </mxCell>
        <mxCell id="QbSMFWVIE9MtOS3FwXWx-70" value="" style="ellipse;html=1;fontSize=11;align=center;fillColor=none;points=[];aspect=fixed;resizable=0;verticalAlign=bottom;labelPosition=center;verticalLabelPosition=top;flipH=1;" vertex="1" parent="1">
          <mxGeometry x="-382" y="-133" width="8" height="8" as="geometry" />
        </mxCell>
        <mxCell id="QbSMFWVIE9MtOS3FwXWx-71" value="" style="endArrow=none;html=1;rounded=0;align=center;verticalAlign=top;endFill=0;labelBackgroundColor=none;endSize=2;edgeStyle=orthogonalEdgeStyle;exitX=1;exitY=0.5;exitDx=0;exitDy=0;" edge="1" parent="1" source="QbSMFWVIE9MtOS3FwXWx-37" target="QbSMFWVIE9MtOS3FwXWx-70">
          <mxGeometry relative="1" as="geometry">
            <mxPoint x="-243" y="123" as="sourcePoint" />
            <Array as="points">
              <mxPoint x="-220" y="113" />
              <mxPoint x="-220" y="-129" />
            </Array>
          </mxGeometry>
        </mxCell>
        <mxCell id="QbSMFWVIE9MtOS3FwXWx-72" value="" style="ellipse;html=1;fontSize=11;align=center;fillColor=none;points=[];aspect=fixed;resizable=0;verticalAlign=bottom;labelPosition=center;verticalLabelPosition=top;flipH=1;" vertex="1" parent="1">
          <mxGeometry x="193" y="313" width="8" height="8" as="geometry" />
        </mxCell>
        <mxCell id="QbSMFWVIE9MtOS3FwXWx-73" value="" style="endArrow=none;html=1;rounded=0;align=center;verticalAlign=top;endFill=0;labelBackgroundColor=none;endSize=2;edgeStyle=orthogonalEdgeStyle;exitX=1;exitY=0.5;exitDx=0;exitDy=0;" edge="1" parent="1" source="QbSMFWVIE9MtOS3FwXWx-37" target="QbSMFWVIE9MtOS3FwXWx-72">
          <mxGeometry relative="1" as="geometry">
            <mxPoint x="-243" y="123" as="sourcePoint" />
            <Array as="points">
              <mxPoint x="-220" y="113" />
              <mxPoint x="-220" y="-130" />
              <mxPoint x="197" y="-130" />
            </Array>
          </mxGeometry>
        </mxCell>
        <mxCell id="QbSMFWVIE9MtOS3FwXWx-27" value="" style="ellipse;html=1;fontSize=11;align=center;fillColor=none;points=[];aspect=fixed;resizable=0;verticalAlign=bottom;labelPosition=center;verticalLabelPosition=top;flipH=1;" vertex="1" parent="1">
          <mxGeometry x="-383" y="-57" width="8" height="8" as="geometry" />
        </mxCell>
        <mxCell id="QbSMFWVIE9MtOS3FwXWx-26" value="" style="endArrow=none;html=1;rounded=0;align=center;verticalAlign=top;endFill=0;labelBackgroundColor=none;endSize=2;edgeStyle=orthogonalEdgeStyle;" edge="1" parent="1" source="QbSMFWVIE9MtOS3FwXWx-25" target="QbSMFWVIE9MtOS3FwXWx-27">
          <mxGeometry relative="1" as="geometry">
            <Array as="points">
              <mxPoint x="250" y="363" />
              <mxPoint x="250" y="-53" />
            </Array>
          </mxGeometry>
        </mxCell>
        <mxCell id="QbSMFWVIE9MtOS3FwXWx-74" value="" style="group" connectable="0" vertex="1" parent="1">
          <mxGeometry x="-10" y="420" width="209.61904761904748" height="150" as="geometry" />
        </mxCell>
        <mxCell id="QbSMFWVIE9MtOS3FwXWx-75" value="&#xa;" style="fontStyle=1;align=center;verticalAlign=top;childLayout=stackLayout;horizontal=1;horizontalStack=0;resizeParent=1;resizeParentMax=0;resizeLast=0;marginBottom=0;container=0;" vertex="1" parent="QbSMFWVIE9MtOS3FwXWx-74">
          <mxGeometry width="150" height="150" as="geometry" />
        </mxCell>
        <mxCell id="QbSMFWVIE9MtOS3FwXWx-76" value="&amp;lt;&amp;lt;component&amp;gt;&amp;gt;&lt;div&gt;Experiment Visualizer&lt;/div&gt;" style="html=1;align=left;spacingLeft=4;verticalAlign=top;strokeColor=none;fillColor=none;whiteSpace=wrap;" vertex="1" parent="QbSMFWVIE9MtOS3FwXWx-74">
          <mxGeometry width="150" height="37.5" as="geometry" />
        </mxCell>
        <mxCell id="QbSMFWVIE9MtOS3FwXWx-77" value="" style="shape=module;jettyWidth=10;jettyHeight=4;" vertex="1" parent="QbSMFWVIE9MtOS3FwXWx-76">
          <mxGeometry x="1" width="16" height="20" relative="1" as="geometry">
            <mxPoint x="-25" y="9" as="offset" />
          </mxGeometry>
        </mxCell>
        <mxCell id="QbSMFWVIE9MtOS3FwXWx-78" value="" style="html=1;rounded=0;" vertex="1" parent="QbSMFWVIE9MtOS3FwXWx-74">
          <mxGeometry x="130" y="52.5" width="30" height="27.5" as="geometry" />
        </mxCell>
        <mxCell id="QbSMFWVIE9MtOS3FwXWx-81" value="" style="endArrow=none;html=1;rounded=0;align=center;verticalAlign=top;endFill=0;labelBackgroundColor=none;endSize=2;" edge="1" parent="QbSMFWVIE9MtOS3FwXWx-74" source="QbSMFWVIE9MtOS3FwXWx-78" target="QbSMFWVIE9MtOS3FwXWx-83">
          <mxGeometry relative="1" as="geometry">
            <mxPoint x="160" y="65.33999999999997" as="sourcePoint" />
          </mxGeometry>
        </mxCell>
        <mxCell id="QbSMFWVIE9MtOS3FwXWx-82" value="Experiment Structure" style="edgeLabel;html=1;align=center;verticalAlign=middle;resizable=0;points=[];" connectable="0" vertex="1" parent="QbSMFWVIE9MtOS3FwXWx-81">
          <mxGeometry x="-0.13" relative="1" as="geometry">
            <mxPoint x="32" y="-14" as="offset" />
          </mxGeometry>
        </mxCell>
        <mxCell id="QbSMFWVIE9MtOS3FwXWx-83" value="" style="shape=requiredInterface;html=1;fontSize=11;align=center;fillColor=none;points=[];aspect=fixed;resizable=0;verticalAlign=bottom;labelPosition=center;verticalLabelPosition=top;flipH=1;" vertex="1" parent="QbSMFWVIE9MtOS3FwXWx-74">
          <mxGeometry x="200" y="61.25" width="5" height="10" as="geometry" />
        </mxCell>
        <mxCell id="QbSMFWVIE9MtOS3FwXWx-84" value="" style="ellipse;html=1;fontSize=11;align=center;fillColor=none;points=[];aspect=fixed;resizable=0;verticalAlign=bottom;labelPosition=center;verticalLabelPosition=top;flipH=1;" vertex="1" parent="1">
          <mxGeometry x="193" y="482" width="8" height="8" as="geometry" />
        </mxCell>
        <mxCell id="QbSMFWVIE9MtOS3FwXWx-85" value="" style="endArrow=none;html=1;rounded=0;align=center;verticalAlign=top;endFill=0;labelBackgroundColor=none;endSize=2;edgeStyle=orthogonalEdgeStyle;" edge="1" parent="1" target="QbSMFWVIE9MtOS3FwXWx-84">
          <mxGeometry relative="1" as="geometry">
            <mxPoint x="150" y="373" as="sourcePoint" />
            <Array as="points">
              <mxPoint x="260" y="373" />
              <mxPoint x="260" y="-43" />
            </Array>
          </mxGeometry>
        </mxCell>
      </root>
    </mxGraphModel>
  </diagram>
  <diagram id="zKuhnS_NtwGqR-aXhIov" name="Visualizer">
    <mxGraphModel grid="1" page="1" gridSize="10" guides="1" tooltips="1" connect="1" arrows="1" fold="1" pageScale="1" pageWidth="827" pageHeight="1169" math="0" shadow="0">
      <root>
        <mxCell id="0" />
        <mxCell id="1" parent="0" />
        <mxCell id="vsata64DA0H3vXPAh8gc-12" value="" style="group" connectable="0" vertex="1" parent="1">
          <mxGeometry x="309" y="-980" width="209.61904761904748" height="150" as="geometry" />
        </mxCell>
        <mxCell id="vsata64DA0H3vXPAh8gc-13" value="&#xa;" style="fontStyle=1;align=center;verticalAlign=top;childLayout=stackLayout;horizontal=1;horizontalStack=0;resizeParent=1;resizeParentMax=0;resizeLast=0;marginBottom=0;container=0;" vertex="1" parent="vsata64DA0H3vXPAh8gc-12">
          <mxGeometry width="150" height="150" as="geometry" />
        </mxCell>
        <mxCell id="vsata64DA0H3vXPAh8gc-14" value="&amp;lt;&amp;lt;component&amp;gt;&amp;gt;&lt;div&gt;Experiment Structure Parser&amp;nbsp;&lt;/div&gt;" style="html=1;align=left;spacingLeft=4;verticalAlign=top;strokeColor=none;fillColor=none;whiteSpace=wrap;" vertex="1" parent="vsata64DA0H3vXPAh8gc-12">
          <mxGeometry width="150" height="37.5" as="geometry" />
        </mxCell>
        <mxCell id="vsata64DA0H3vXPAh8gc-15" value="" style="shape=module;jettyWidth=10;jettyHeight=4;" vertex="1" parent="vsata64DA0H3vXPAh8gc-14">
          <mxGeometry x="1" width="16" height="20" relative="1" as="geometry">
            <mxPoint x="-25" y="9" as="offset" />
          </mxGeometry>
        </mxCell>
        <mxCell id="vsata64DA0H3vXPAh8gc-16" value="" style="html=1;rounded=0;" vertex="1" parent="vsata64DA0H3vXPAh8gc-12">
          <mxGeometry x="130" y="52.5" width="30" height="27.5" as="geometry" />
        </mxCell>
        <mxCell id="vsata64DA0H3vXPAh8gc-17" value="" style="html=1;rounded=0;" vertex="1" parent="vsata64DA0H3vXPAh8gc-12">
          <mxGeometry x="130" y="97.5" width="30" height="30" as="geometry" />
        </mxCell>
        <mxCell id="vsata64DA0H3vXPAh8gc-19" value="" style="endArrow=none;html=1;rounded=0;align=center;verticalAlign=top;endFill=0;labelBackgroundColor=none;endSize=2;" edge="1" parent="1" source="vsata64DA0H3vXPAh8gc-16" target="vsata64DA0H3vXPAh8gc-21">
          <mxGeometry relative="1" as="geometry" />
        </mxCell>
        <mxCell id="vsata64DA0H3vXPAh8gc-20" value="File To Parse" style="edgeLabel;html=1;align=center;verticalAlign=middle;resizable=0;points=[];" connectable="0" vertex="1" parent="vsata64DA0H3vXPAh8gc-19">
          <mxGeometry x="-0.13" relative="1" as="geometry">
            <mxPoint x="22" y="-15" as="offset" />
          </mxGeometry>
        </mxCell>
        <mxCell id="vsata64DA0H3vXPAh8gc-21" value="" style="shape=requiredInterface;html=1;fontSize=11;align=center;fillColor=none;points=[];aspect=fixed;resizable=0;verticalAlign=bottom;labelPosition=center;verticalLabelPosition=top;flipH=1;" vertex="1" parent="1">
          <mxGeometry x="529" y="-918.0899999999999" width="5" height="10" as="geometry" />
        </mxCell>
        <mxCell id="vsata64DA0H3vXPAh8gc-30" value="" style="group" connectable="0" vertex="1" parent="1">
          <mxGeometry x="239" y="-1130" width="212.12" height="155" as="geometry" />
        </mxCell>
        <mxCell id="vsata64DA0H3vXPAh8gc-31" value="&#xa;" style="fontStyle=1;align=center;verticalAlign=top;childLayout=stackLayout;horizontal=1;horizontalStack=0;resizeParent=1;resizeParentMax=0;resizeLast=0;marginBottom=0;container=0;" vertex="1" parent="vsata64DA0H3vXPAh8gc-30">
          <mxGeometry y="-30" width="150" height="155.00000000000003" as="geometry" />
        </mxCell>
        <mxCell id="vsata64DA0H3vXPAh8gc-32" value="&amp;lt;&amp;lt;component&amp;gt;&amp;gt;&lt;div&gt;Web Editor / VSCode Extension&amp;nbsp;&lt;/div&gt;" style="html=1;align=left;spacingLeft=4;verticalAlign=top;strokeColor=none;fillColor=none;whiteSpace=wrap;" vertex="1" parent="vsata64DA0H3vXPAh8gc-30">
          <mxGeometry y="-30" width="150" height="38.75000000000001" as="geometry" />
        </mxCell>
        <mxCell id="vsata64DA0H3vXPAh8gc-33" value="" style="shape=module;jettyWidth=10;jettyHeight=4;" vertex="1" parent="vsata64DA0H3vXPAh8gc-32">
          <mxGeometry x="1" width="16" height="20" relative="1" as="geometry">
            <mxPoint x="-25" y="9" as="offset" />
          </mxGeometry>
        </mxCell>
        <mxCell id="vsata64DA0H3vXPAh8gc-34" value="" style="html=1;rounded=0;" vertex="1" parent="vsata64DA0H3vXPAh8gc-30">
          <mxGeometry x="134.62" y="16.99666666666667" width="30" height="28.416666666666668" as="geometry" />
        </mxCell>
        <mxCell id="vsata64DA0H3vXPAh8gc-35" value="" style="endArrow=none;html=1;rounded=0;align=center;verticalAlign=top;endFill=0;labelBackgroundColor=none;endSize=2;" edge="1" parent="vsata64DA0H3vXPAh8gc-30" source="vsata64DA0H3vXPAh8gc-34" target="vsata64DA0H3vXPAh8gc-37">
          <mxGeometry relative="1" as="geometry" />
        </mxCell>
        <mxCell id="vsata64DA0H3vXPAh8gc-36" value="File" style="edgeLabel;html=1;align=center;verticalAlign=middle;resizable=0;points=[];" connectable="0" vertex="1" parent="vsata64DA0H3vXPAh8gc-35">
          <mxGeometry x="-0.13" relative="1" as="geometry">
            <mxPoint x="22" y="-15" as="offset" />
          </mxGeometry>
        </mxCell>
        <mxCell id="vsata64DA0H3vXPAh8gc-37" value="" style="shape=requiredInterface;html=1;fontSize=11;align=center;fillColor=none;points=[];aspect=fixed;resizable=0;verticalAlign=bottom;labelPosition=center;verticalLabelPosition=top;flipH=1;" vertex="1" parent="vsata64DA0H3vXPAh8gc-30">
          <mxGeometry x="204.62" y="26.080333333333364" width="5" height="10" as="geometry" />
        </mxCell>
        <mxCell id="vsata64DA0H3vXPAh8gc-42" value="" style="html=1;rounded=0;" vertex="1" parent="vsata64DA0H3vXPAh8gc-30">
          <mxGeometry x="134.62" y="69.99666666666667" width="30" height="28.416666666666668" as="geometry" />
        </mxCell>
        <mxCell id="vsata64DA0H3vXPAh8gc-43" value="" style="endArrow=none;html=1;rounded=0;align=center;verticalAlign=top;endFill=0;labelBackgroundColor=none;endSize=2;" edge="1" parent="vsata64DA0H3vXPAh8gc-30">
          <mxGeometry relative="1" as="geometry">
            <mxPoint x="164.62" y="84.21247826086952" as="sourcePoint" />
            <mxPoint x="204.62" y="84.12575362318844" as="targetPoint" />
          </mxGeometry>
        </mxCell>
        <mxCell id="vsata64DA0H3vXPAh8gc-44" value="Structure Info" style="edgeLabel;html=1;align=center;verticalAlign=middle;resizable=0;points=[];" connectable="0" vertex="1" parent="vsata64DA0H3vXPAh8gc-43">
          <mxGeometry x="-0.13" relative="1" as="geometry">
            <mxPoint x="22" y="-15" as="offset" />
          </mxGeometry>
        </mxCell>
        <mxCell id="vsata64DA0H3vXPAh8gc-50" value="" style="ellipse;html=1;fontSize=11;align=center;fillColor=none;points=[];aspect=fixed;resizable=0;verticalAlign=bottom;labelPosition=center;verticalLabelPosition=top;flipH=1;" vertex="1" parent="vsata64DA0H3vXPAh8gc-30">
          <mxGeometry x="206.62" y="80.20000000000002" width="8" height="8" as="geometry" />
        </mxCell>
        <mxCell id="vsata64DA0H3vXPAh8gc-45" value="" style="shape=requiredInterface;html=1;fontSize=11;align=center;fillColor=none;points=[];aspect=fixed;resizable=0;verticalAlign=bottom;labelPosition=center;verticalLabelPosition=top;flipH=1;" vertex="1" parent="vsata64DA0H3vXPAh8gc-30">
          <mxGeometry x="204.62" y="79.20033333333342" width="5" height="10" as="geometry" />
        </mxCell>
        <mxCell id="vsata64DA0H3vXPAh8gc-46" value="" style="ellipse;html=1;fontSize=11;align=center;fillColor=none;points=[];aspect=fixed;resizable=0;verticalAlign=bottom;labelPosition=center;verticalLabelPosition=top;flipH=1;" vertex="1" parent="1">
          <mxGeometry x="447" y="-1103" width="8" height="8" as="geometry" />
        </mxCell>
        <mxCell id="vsata64DA0H3vXPAh8gc-48" value="" style="ellipse;html=1;fontSize=11;align=center;fillColor=none;points=[];aspect=fixed;resizable=0;verticalAlign=bottom;labelPosition=center;verticalLabelPosition=top;flipH=1;" vertex="1" parent="1">
          <mxGeometry x="532" y="-917" width="8" height="8" as="geometry" />
        </mxCell>
        <mxCell id="vsata64DA0H3vXPAh8gc-51" value="" style="endArrow=none;html=1;rounded=0;align=center;verticalAlign=top;endFill=0;labelBackgroundColor=none;endSize=2;edgeStyle=orthogonalEdgeStyle;entryX=-0.01;entryY=0.515;entryDx=0;entryDy=0;entryPerimeter=0;exitX=1;exitY=0.5;exitDx=0;exitDy=0;" edge="1" parent="1" source="vsata64DA0H3vXPAh8gc-17" target="vsata64DA0H3vXPAh8gc-50">
          <mxGeometry relative="1" as="geometry">
            <Array as="points">
              <mxPoint x="599" y="-867" />
              <mxPoint x="599" y="-1046" />
            </Array>
            <mxPoint x="499.2" y="-867.4976744186047" as="sourcePoint" />
            <mxPoint x="463.80400000000003" y="-1094.464" as="targetPoint" />
          </mxGeometry>
        </mxCell>
        <mxCell id="vsata64DA0H3vXPAh8gc-52" value="" style="group" connectable="0" vertex="1" parent="1">
          <mxGeometry x="81.38" y="-710" width="209.61904761904748" height="150" as="geometry" />
        </mxCell>
        <mxCell id="vsata64DA0H3vXPAh8gc-53" value="&#xa;" style="fontStyle=1;align=center;verticalAlign=top;childLayout=stackLayout;horizontal=1;horizontalStack=0;resizeParent=1;resizeParentMax=0;resizeLast=0;marginBottom=0;container=0;" vertex="1" parent="vsata64DA0H3vXPAh8gc-52">
          <mxGeometry width="150" height="150" as="geometry" />
        </mxCell>
        <mxCell id="vsata64DA0H3vXPAh8gc-54" value="&amp;lt;&amp;lt;component&amp;gt;&amp;gt;&lt;div&gt;Experiment Visualizer&lt;/div&gt;" style="html=1;align=left;spacingLeft=4;verticalAlign=top;strokeColor=none;fillColor=none;whiteSpace=wrap;" vertex="1" parent="vsata64DA0H3vXPAh8gc-52">
          <mxGeometry width="150" height="37.5" as="geometry" />
        </mxCell>
        <mxCell id="vsata64DA0H3vXPAh8gc-55" value="" style="shape=module;jettyWidth=10;jettyHeight=4;" vertex="1" parent="vsata64DA0H3vXPAh8gc-54">
          <mxGeometry x="1" width="16" height="20" relative="1" as="geometry">
            <mxPoint x="-25" y="9" as="offset" />
          </mxGeometry>
        </mxCell>
        <mxCell id="vsata64DA0H3vXPAh8gc-56" value="" style="html=1;rounded=0;" vertex="1" parent="vsata64DA0H3vXPAh8gc-52">
          <mxGeometry x="130" y="52.5" width="30" height="37.5" as="geometry" />
        </mxCell>
        <mxCell id="vsata64DA0H3vXPAh8gc-57" value="" style="endArrow=none;html=1;rounded=0;align=center;verticalAlign=top;endFill=0;labelBackgroundColor=none;endSize=2;exitX=0.998;exitY=0.36;exitDx=0;exitDy=0;exitPerimeter=0;" edge="1" parent="vsata64DA0H3vXPAh8gc-52" source="vsata64DA0H3vXPAh8gc-56" target="vsata64DA0H3vXPAh8gc-59">
          <mxGeometry relative="1" as="geometry">
            <mxPoint x="160" y="65.33999999999997" as="sourcePoint" />
          </mxGeometry>
        </mxCell>
        <mxCell id="vsata64DA0H3vXPAh8gc-58" value="Experiment Structure" style="edgeLabel;html=1;align=center;verticalAlign=middle;resizable=0;points=[];" connectable="0" vertex="1" parent="vsata64DA0H3vXPAh8gc-57">
          <mxGeometry x="-0.13" relative="1" as="geometry">
            <mxPoint x="43" y="-14" as="offset" />
          </mxGeometry>
        </mxCell>
        <mxCell id="vsata64DA0H3vXPAh8gc-59" value="" style="shape=requiredInterface;html=1;fontSize=11;align=center;fillColor=none;points=[];aspect=fixed;resizable=0;verticalAlign=bottom;labelPosition=center;verticalLabelPosition=top;flipH=1;" vertex="1" parent="vsata64DA0H3vXPAh8gc-52">
          <mxGeometry x="200" y="61.25" width="5" height="10" as="geometry" />
        </mxCell>
        <mxCell id="vsata64DA0H3vXPAh8gc-60" value="" style="ellipse;html=1;fontSize=11;align=center;fillColor=none;points=[];aspect=fixed;resizable=0;verticalAlign=bottom;labelPosition=center;verticalLabelPosition=top;flipH=1;" vertex="1" parent="1">
          <mxGeometry x="283" y="-648" width="8" height="8" as="geometry" />
        </mxCell>
        <mxCell id="vsata64DA0H3vXPAh8gc-61" value="" style="endArrow=none;html=1;rounded=0;align=center;verticalAlign=top;endFill=0;labelBackgroundColor=none;endSize=2;edgeStyle=orthogonalEdgeStyle;exitX=1;exitY=0.75;exitDx=0;exitDy=0;" edge="1" parent="1" source="vsata64DA0H3vXPAh8gc-17" target="vsata64DA0H3vXPAh8gc-60">
          <mxGeometry relative="1" as="geometry">
            <mxPoint x="489" y="-857" as="sourcePoint" />
            <Array as="points">
              <mxPoint x="670" y="-860" />
              <mxPoint x="670" y="-644" />
            </Array>
          </mxGeometry>
        </mxCell>
        <mxCell id="vsata64DA0H3vXPAh8gc-62" style="edgeStyle=orthogonalEdgeStyle;rounded=0;orthogonalLoop=1;jettySize=auto;html=1;entryX=-0.089;entryY=0.357;entryDx=0;entryDy=0;entryPerimeter=0;endArrow=none;endFill=0;" edge="1" parent="1" source="vsata64DA0H3vXPAh8gc-46" target="vsata64DA0H3vXPAh8gc-48">
          <mxGeometry relative="1" as="geometry">
            <Array as="points">
              <mxPoint x="569" y="-1100" />
              <mxPoint x="569" y="-914" />
            </Array>
          </mxGeometry>
        </mxCell>
        <mxCell id="vsata64DA0H3vXPAh8gc-63" value="" style="group" connectable="0" vertex="1" parent="1">
          <mxGeometry x="110" y="-530" width="209.62" height="150" as="geometry" />
        </mxCell>
        <mxCell id="vsata64DA0H3vXPAh8gc-64" value="&#xa;" style="fontStyle=1;align=center;verticalAlign=top;childLayout=stackLayout;horizontal=1;horizontalStack=0;resizeParent=1;resizeParentMax=0;resizeLast=0;marginBottom=0;container=0;" vertex="1" parent="vsata64DA0H3vXPAh8gc-63">
          <mxGeometry width="150" height="150" as="geometry" />
        </mxCell>
        <mxCell id="vsata64DA0H3vXPAh8gc-65" value="&amp;lt;&amp;lt;component&amp;gt;&amp;gt;&lt;div&gt;TreeDrawer&lt;/div&gt;" style="html=1;align=left;spacingLeft=4;verticalAlign=top;strokeColor=none;fillColor=none;whiteSpace=wrap;" vertex="1" parent="vsata64DA0H3vXPAh8gc-63">
          <mxGeometry width="150" height="37.5" as="geometry" />
        </mxCell>
        <mxCell id="vsata64DA0H3vXPAh8gc-66" value="" style="shape=module;jettyWidth=10;jettyHeight=4;" vertex="1" parent="vsata64DA0H3vXPAh8gc-65">
          <mxGeometry x="1" width="16" height="20" relative="1" as="geometry">
            <mxPoint x="-25" y="9" as="offset" />
          </mxGeometry>
        </mxCell>
        <mxCell id="vsata64DA0H3vXPAh8gc-67" value="" style="html=1;rounded=0;" vertex="1" parent="vsata64DA0H3vXPAh8gc-63">
          <mxGeometry x="130" y="52.5" width="30" height="27.5" as="geometry" />
        </mxCell>
        <mxCell id="vsata64DA0H3vXPAh8gc-68" value="" style="endArrow=none;html=1;rounded=0;align=center;verticalAlign=top;endFill=0;labelBackgroundColor=none;endSize=2;" edge="1" parent="vsata64DA0H3vXPAh8gc-63" source="vsata64DA0H3vXPAh8gc-67" target="vsata64DA0H3vXPAh8gc-70">
          <mxGeometry relative="1" as="geometry">
            <mxPoint x="160" y="65.33999999999997" as="sourcePoint" />
          </mxGeometry>
        </mxCell>
        <mxCell id="vsata64DA0H3vXPAh8gc-70" value="" style="shape=requiredInterface;html=1;fontSize=11;align=center;fillColor=none;points=[];aspect=fixed;resizable=0;verticalAlign=bottom;labelPosition=center;verticalLabelPosition=top;flipH=1;" vertex="1" parent="vsata64DA0H3vXPAh8gc-63">
          <mxGeometry x="200" y="61.25" width="5" height="10" as="geometry" />
        </mxCell>
        <mxCell id="vsata64DA0H3vXPAh8gc-71" value="" style="ellipse;html=1;fontSize=11;align=center;fillColor=none;points=[];aspect=fixed;resizable=0;verticalAlign=bottom;labelPosition=center;verticalLabelPosition=top;flipH=1;" vertex="1" parent="vsata64DA0H3vXPAh8gc-63">
          <mxGeometry x="201.62" y="62.25" width="8" height="8" as="geometry" />
        </mxCell>
        <mxCell id="s5BdorVyDceylwn0Z27--1" value="Pipelines Data" style="edgeLabel;html=1;align=center;verticalAlign=middle;resizable=0;points=[];" connectable="0" vertex="1" parent="vsata64DA0H3vXPAh8gc-63">
          <mxGeometry x="199.99970671863747" y="49.99985729980415" as="geometry" />
        </mxCell>
        <mxCell id="vsata64DA0H3vXPAh8gc-18" value="Experiment Structure" style="edgeLabel;html=1;align=center;verticalAlign=middle;resizable=0;points=[];" connectable="0" vertex="1" parent="1">
          <mxGeometry x="539.9990476190475" y="-905" as="geometry">
            <mxPoint x="-9" y="60" as="offset" />
          </mxGeometry>
        </mxCell>
        <mxCell id="3QVgTCk2ebINi8iruhBC-1" style="edgeStyle=orthogonalEdgeStyle;rounded=0;orthogonalLoop=1;jettySize=auto;html=1;exitX=1;exitY=0.75;exitDx=0;exitDy=0;entryX=0.119;entryY=0.594;entryDx=0;entryDy=0;entryPerimeter=0;endArrow=none;endFill=0;" edge="1" parent="1" source="vsata64DA0H3vXPAh8gc-56" target="vsata64DA0H3vXPAh8gc-71">
          <mxGeometry relative="1" as="geometry">
            <Array as="points">
              <mxPoint x="360" y="-629" />
              <mxPoint x="360" y="-463" />
            </Array>
          </mxGeometry>
        </mxCell>
      </root>
    </mxGraphModel>
  </diagram>
</mxfile>
